<svg width="100%" height="100%" viewBox="0 0 496 248" fill="none" xmlns="http://www.w3.org/2000/svg"><path d="M271.441 199.597l-1.47 1.535h-2.478v-2.26l1.921-1.24h2.027v1.965zm4.253-6.62v2.227l-1.89-1.134v-1.734h1.89v-6.274h-4.831l-11.487 7.703-2.825-3.248v6.379h-6.982l4.053 11.109h13.304l10.238-11.855.462-3.205-1.932.032zM95.507 67.499l2.646-1.807h3.192l-2.635 1.807h-3.203zm24.117-9.586l-3.379 2.928h-7.833l-2.425 1.663h1.869l-2.604 1.778h-1.859l2.594-1.778h-5.114l-2.216 1.723-2.257.226.451-3.894h-1.743l-2.037 1.355-3.78 5.586h-2.226l4.284-6.94 5.05-1.082-.283-.949-3.328-.113-1.575-.96-1.974.96h-2.31l.944-2.044-4.778-2.188H42.343L28.923 68.35v10.887l4.9 4.905 17.136 2.205 2.286 3.47 4.82-.17 3.977 7.82 7.412-9.313 17.62.056 1.165 8.815 2.793.073.073-10.971 28.519-24.402 1.943-.336.526-1.768.577-1.708h-3.046zM136.49 56.4h9.955l-2.069-3.298-1.869-.447V50.29l-6.017 6.11zm-73.797 53.344l-3.84-8.281 3.19-3.996-3.978-7.819-4.82.17-2.286-3.47-17.136-2.205.762 7.746 5.271 9.984 2.16-1.671-4.157-8.871v-4.993h2.452l.096 4.644 7.875 18.517 12.842 5.36 3.204-.852 2.82 2.88 1.406-2.501h2.959l-.422-3.248h2.535l3.299-2.459.14-3.583-3.608-.063-2.867 4.708-7.897.003zM204.87 29.464l4.767-2.321v-.654l-2.363-2.398-3.307 1.1-3.97-.085-.84 1.146-2.257-.053v2.123l7.97 1.142zm42.432 50.391l.01-2.253-2.551-.067-.021 1.66 2.562.66zm-96.688-72.05v2.375l11.845.17 3.034 5.24v4.74l-5.681 3.23.168 6.43 3.571 3.613h4.221l6.447-6.82 9.104-2.687 3.412-2.616 6.889-.425 4.819-1.424 9.083-14.45 5.597-1.146 1.974-1.986L198.957.425l-13.945 1.624h-16.884l-9.734 3.385-7.781 2.371zm274.69 91.481l-1.376-1.44-2.257 3.216 2.257 2.113 1.376-3.889zm-21.673-39.86l.452-2.54-4.736-.761-1.806-2.963h-9.02l-18.439-4.57-2.026 4.57-7.497-2.285-5.597 4.267L373.19 65.8l21.084.226 2.541-5.174 6.815-1.426zm4.001 48.32l-2.709.599v1.597l1.102 1.335 1.607-2.007v-1.524zM397.54 53.162l1.806 2.963 4.736.761-.452 2.54-6.804 1.426-2.552 5.174-21.084-.226-18.229-10.656-7.886 6.017 1.313 6.106-7.897 2.936 2.258 5.527 8.4 3.836.336 6.771 21.988 7.61 4.053-3.717 8.632 3.718-1.187 3.216 4.568 7.619 8.001-4.057 5.229 4.477 2.216-1.261.084 2.154 13.104-4.687 4.284-9.597-7.644-12.59 3.927-4.286h-4.515l-1.449.938-2.835-4.66 3.612-3.16 2.478 4.733 10.143-6.99v-8.915l-11.046-2.82-8.117-7.957h-7.886l1.796 6.376-3.381.681zm45.561 13.41l3.087-.042 1.313-2.243-6.857-2.877.136 5.67 1.355.803.966-1.311zm-8.526 13.104l-.504 1.744 6.793-1.004.525 2.625 1.544-.655.168-2.066 4.557-1.172-.241-5.962-2.069-3.614-2.058-.597 1.176 5.416-4.211 3.823-5.68 1.462zm-1.197 3.365l2.457-.31.798 1.186-.882 2.792-2.373-3.668zm6.552-1.156l-1.187 2.158-1.564-1.777 2.751-.38zm-7.434 36.824l-3.728-.389-1.354-1.692 1.354-3.11-1.344-2.985-2.457-.052-.599 5.254 3.476 4.193 4.074.515.578-1.734zm-11.74 9.322l1.649.325 2.929-2.438-.063-1.996-4.515 4.109zm12.863 3.772v2.344l2.447-.736-.83-1.513 1.974-.504-1.68-5.244-1.239 3.236h-4.053l3.381 2.417zm-7.214-11.696l1.744 1.713-.567 1.051-1.408-1.377.231-1.387zm1.744 4.193l1.239.841 1.354-2.05-1.806-.22-.787 1.429zm4.62-2.144l1.701 2.197h1.858l-1.774-2.859-1.785.662zm0 1.85l.955 1.671-.766 1.019-1.344-2.028 1.155-.662zm-2.027 1.692l.872 1.313-.872 1.051-.997-1.219.997-1.145zm3.308 34.427l1.144 1.577 3.213-.389v-1.188h-4.357zm-25.821-18.538l.158 4.54 2.583 4.519h8.211l4.064-5.191v-9.416l-2.93.304-2.373 4.488-7.949 1.776-1.711-1.041-.053.021zm-5.838 11.855v-3.468l-13.535-14.051-4.631-1.776 15.678 21.365 2.488-2.07zm15.814 6.179l.252 1.177-16.916-2.869 2.541-2.039 4.221 1.608 3.811-.841 6.091 2.964zm10.815 0h-2.615l.504 1.692h2.5l1.05-.851-1.439-.841zm-4.568 2.743l.767.935h1.816l-.63-1.356-1.953.421zm9.598-2.239l-2.615 2.922 1.985.252 1.774-1.597-1.144-1.577zm-8.705-5.16l1.943-.599-.589-3.426 1.145-1.271.966 2.543 2.331.809v-1.828l-1.312-2.901 2.488-2.091-3.969.168-.819-1.135 1.575-1.734 2.919 1.009 1.439-.126 2.152-2.543-1.89-.042-1.228.809-4.064-.988-2.688 2.427.189 3.847-1.565 2.081.977 4.991zm14.585-5.454l-.452 1.587 4.4-.452v-1.135h-3.948zm1.018-10.246l-1.47 1.45-.556 3.615 2.026.494-.451-3.205 1.176-1.471-.725-.883zm9.965 9.616l-.588-3.132-4.819.683 5.407 2.449zm-.325 2.606l6.72 2.806 1.208 3.436-2.237 1.366 5.754 1.997v-11.339l-4.672-2.438-4.358 3.541-4.61-1.818-.514 2.543 2.709-.094zm-20.014-74.803l-4.536-3.715-2.006 1.853 2.709 5.869 3.277-.226.556-3.782zm-4.536-3.715l-2.006-1.644 2.594-.338-.452-5.19-6.667 4.596 1.953 3.71 2.572.72 2.006-1.854zm-5.807 59.88l-3.612 4.866-8.337 3.857 1.711 1.04 7.949-1.776 2.373-4.487 2.93-.305v-3.447l-3.014.252zm-27.637 0l1.449 4.708 5.965 5.086.462-1.807-5.629-8.323-2.247.336zm71.529 28.984l4-3.678 5.188 5.065 4.735.967-5.859-5.864.284-3.1-10.438-5.465v11.339l2.09.736zm10.983-6.074l2.111 1.261 3.643-2.049v-2.123l-5.754 2.911zm2.94-5.959l4.253 3.048 1.701-.578-4.316-2.575-1.638.105zm-88.507-45.021l-4.568-7.619 1.176-3.215-2.646-1.135-3.549 2.553-1.67 11.55 2.636 2.207 1.008 5.275 1.858.557 1.334-1.671 2.478 2.796 1.376 5.107-.326 5.276 2.132-4.183-3.833-13.83 2.594-1.881v-1.787zm7.665 6.495l3.066 4.172-2.867 2.88h6.427v-1.64l-6.259-6.663-1.386-4.287-4.347-2.123-2.299 1.166v1.787l2.247 1.314v3.394h5.418zm-5.418 0v-3.394l-2.247-1.314-2.594 1.881 3.833 13.83-2.132 4.183-.126 2.08 3.717 3.153.357 1.156 2.247-.336-3.612-5.328.84-8.239 4.064 4.025v-3.374l4.137-4.151-3.066-4.172h-5.418zm4.347 8.323v3.374l2.026 2.017 2.279-.315 3.392-2.543v-3.804h-6.427l-1.27 1.271zm1.438-9.574l6.259 6.663v5.444l-3.392 2.543.084 3.636 6.489-4.288-.22-6.379-6.773-7.156.336-3.92 2.415-1.366-5.229-4.477-5.702 2.89 4.347 2.123 1.386 4.287zm-27.059-13.871l-1.439.672 2.038 6.442 1.312-1.271 5.859 4.918.378-2.628-3.076-2.879-.504-3.447-2.457 1.009-2.111-2.817zm2.111-.442l-3.55-.883.494-2.228-1.019-.353-2.173 3.464-11.939-4.525.031-3.817-2.982-1.034-.336-6.771-2.604-1.188h-2.404l-3.571 2.54-.094 2.161 2.163 1.227 1.029 4.225-4.694 4.324h-3.003v3.194l2.247.852v2.753l-4.053 1.082.347.41 3.349 1.062-1.564 1.608 1.48 1.923 2.657.315.472-2.207 1.051.011 8.536 24.57 5.419-3.332.84-9.878 12.359-11.949-2.038-6.442 1.439-.672 2.111 2.816 2.457-1.009.504 3.447 3.076 2.879 1.292-8.922 3.549-2.553-5.975-2.584-4.053 3.719-.85 1.765zm-18.156-8.342l-.031 3.817 11.939 4.525 2.173-3.464-14.081-4.878zm15.1 5.231l-.494 2.228 3.55.883.85-1.765-3.906-1.346zm-67.633-28.553l2.531 2.104 3.223-.89 2.856 2.385-.493-6.194 4.399-1.016 5.797 3.978 4.851-.931 3.549 4.683 3.423-.152 3.35-2.754 7.907-.344 5.061 2.347-1.313-6.107 7.886-6.014-4.547-2.66-26.503-9.355-10.448 2.357v4.727h-18.522v6.108l2.478 3.102 5.303-2.144 3.16 2.144-3.832 1.861-.116 2.765zm20.287 14.587l-1.775-2.876-6.93-2.201-4.095 1.366-.074 1.826-5.218-.004-2.877-5.08-3.252.32-3.626.36v2.03l8.348 14.126 2.478.289 5.754 6.008 10.595 3.163h2.94l2.131-3.668-2.362-2.964-3.381-9.817 1.344-2.878zM310.544 67.65l-2.856-2.386-3.223.892 5.145 4.264-.189 4.504 4.095-1.366 6.941 2.2 1.774 2.877 6.594-3.385-10.867-8.705h-4.61l-2.804 1.105zm27.427 25.2h3.003l4.694-4.323-1.029-4.226-2.163-1.226.094-2.162 3.571-2.539h2.404l-5.008-2.29-5.335.77-1.69 7.334-6.164 5.703-6.615-.066.525 1.5 2.362 2.965-2.131 3.668h9.24l2.436 2.774 4.053-1.082v-2.753l-2.247-.852v-3.194zm-17.724-28.437l-5.797-3.977-4.399 1.015.493 6.194 2.804-1.105h4.61l10.867 8.705 3.56.953-1.617-4.76 5.051-1.45.283-2.153-7.455.33-3.549-4.683-4.851.931zm1.974 14.219l-1.344 2.878 2.856 8.316 6.615.066 6.164-5.703 1.69-7.333-1.092-3.09-4.725 2.434-3.56-.953-6.604 3.385zm14.438-6.29l-4.242-1.377-1.649.475 1.617 4.76 4.725-2.434 1.092 3.09 5.335-.77-.788-.359-1.554-3.816-4.536.431zm-1.239-7.08l-3.35 2.754 4.032-.179-.283 2.152-3.402.976 4.242 1.377 4.536-.43-.704-1.713 7.897-2.935-5.061-2.346-7.907.343zm-40.479 3.963L298 71.985l3.252-.322-2.29-4.036-2.478-.614-1.543 2.213zm-6.5-1.142l4.484 1.142h2.016l1.543-2.213-5.722-2.597-2.321.503v3.165zm5.933 4.26l3.626-.36-3.059-2.758h-2.016l1.449 3.117zm-34.179-34.418l-1.186.28.304.229-.336 1.524-3.329-1.524.011 1.977 4.536 1.159 3.266 1.495 1.26-1.078-.452-3.212-1.659.505-2.415-1.355zm-4.526 4.747l2.531.844.693 1.433.546 1.53 4.022-3.414-3.266-1.495-4.536-1.158.01 2.26zm12.853-.685h-3.801l-5.282 4.491.84 2.318 7.571 1.208 4.725-1.032-2.814-1.145 1.69-1.08-2.929-4.76zm-10.543-5.873l-.399 1.016 1.429 1.076 1.186-.28 2.415 1.354 1.659-.505-.514-3.658-.945.888-4.831.11zm9.871 13.893l-7.571-1.208.473 1.316-2.709 3.38v1.913h10.237l.987 1.873-1.774 2.784 1.554.65.42-1.29h6.069l-1.344 1.395 1.869 1.058 2.52-.197-2.394-3.06 6.3-1.34 1.607-3.611-11.519-4.695-4.725 1.032zm-14.417-29.593L242.827 28.2v6.924l-1.459 2.288 3.99 4.598 6.51-5.77-3.045-3.783 6.857-7.5h1.354l-1.869-4.542h-1.732zm-18.701 17.519l6.205-1.016.431.495 1.459-2.288v-6.924l10.616-7.785h5.87v-1.939l-6.017.307-20.633 14.292 2.069 4.858zm24.581-17.52h-4.137l1.858 4.543h1.092l-3.297 7.475 3.854 1.946h5.87l3.297-3.808-5.471-12.254-3.066.156v1.943zm177.876 34.05h2.027l-7.151-7.334-2.026-.058 5.743 7.11 2.814 5.247h2.09l-3.497-4.965zM258.2 43.517l-2.531-.844-.031 1.692 3.255.585-.693-1.433zm151.268-25.351l-1.942-2.641-12.013-1.965-3.381 3.046h-9.723l-4.053-3.046h-21.988l-1.355-4.851h-20.297l-17.892 8.01 3.916 4.853-3.381 3.497-3.056-9.995-5.397-.428 2.594 5.91-20.864.564-19.5 8.011-2.572-4.905 7.413.279 3.612-1.805-14.207-4.534-3.024.154 5.471 12.254-3.297 3.808-.798.747.966 6.87h3.801l2.929 4.76-1.69 1.08 14.333 5.84-1.607 3.61.756 1.804-1.858.508.325 2.968 6.752 2.35 2.321-.503 5.722 2.597 2.478.614-1.564-2.699.021-5.508-2.478-3.102V50.21l18.501.013v-4.727l10.448-2.357 26.503 9.354 4.547 2.658 5.597-4.266 7.497 2.285 2.026-4.57 18.439 4.57h9.02l3.381-.677-1.806-6.376h7.896l8.117 7.956 11.046 2.82v8.916l4.841-.852 2.604-3.888v-7.222l-7.445-8.463-7.213-.112 1.239-8.914 14.879.113 1.617-5.06 6.279 2.379.021-2.332 1.554.16 2.709 2.595-2.614 1.782-.315 5.327 10.594 10.043v-9.704l-5.974-5.756 14.154-4.485.179-1.446-7.119-1.939 2.772-2.162 6.363 1.316 4.315.085-3.465-3.721-22.218-4.405-34.442-.982zm-158.66 37.77l-2.615 2.144 3.801 1.414 4.053-.7 3.214-3.382-1.218-.003v-.803l-7.235 1.33zm-1.943-1.84l1.943 1.84 7.235-1.33v-1.11l-6.563-.788-.273-.107-2.342 1.495zm-13.713 5.23l2.331.168 2.11-.488-.756-2.285h-1.984l-1.292.595-.409 2.01zm8.925-5.23h4.788l2.342-1.495-4.578-1.806-4.096 1.27 1.544 2.031zm-32.173 22.027l.945.072 1.092-9.18-3.549-.595-.179 6.713 1.691 2.99zm55.589-16.058l1.774-2.783-.987-1.873h-3.087l2.3 4.657zm-8.6-15.115l-3.255-.585-3.392.107-.766-.703-4.851 1.184-.431-.005.431 5.844 4.588 1.806.263.107 6.563.791 2.709-3.38-.473-1.316-.84-2.32-.546-1.53zm.368 10.459l-3.214 3.382 2.878 4.781 7.182-.818 2.047.564.893-2.602-1.554-.65-2.3-4.657h-5.932zm-13.073-10.46l-6.227-.072-.284-1.108h-2.184l.441 1.067-3.276 1.964-.294 5.66 1.985 1.036-.788 3.817 1.292-.596h4.62l.399-.116 3.35-.984-1.145-1.524-1.544-2.031 4.096-1.27-.441-5.844zm-8.695-1.18h2.184l-.115-.469.714-4.016-1.964-.027-1.396 3.15.577 1.362zm5.828-1.406l-1.229-1.218-1.092.449-.336 1.726 2.037-.02.62-.937zm1.901 13.252l-3.749 1.1h-2.636l.756 2.286 4.001-.926h4.599l1.922-1.58.693-.565-1.943-1.839h-4.788l1.145 1.524zm2.289 18.275h-4.064v1.016l1.523 1.044 2.541.394V73.89zm-10.658-5.726v4.175h1.942v-3.61l-1.942-.565zm-1.701-8.847l-.368 1.794 2.352 1.073h2.73l8.401 8.39.43 3.57 1.544-.903.483-2.567 1.911-.383-10.249-8.877 2.909-.175-1.701-3.168-6.111 1.413-2.331-.167zm2.677 5.97v1.722l.966.365.431-2.087h-1.397zm-19.383-10.55v1.24l3.486 1.886.462 6.182 5.166 3.308 1.596-2.066 7.56.055.221-3.158h.199l-2.352-1.073 1.565-7.621-6.878-3.59-8.064 4.836h-2.961zm12.947-5.987l-1.922 1.15 3.854 2.01 1.102-.594.042-.931-3.076-1.635zm3.076 1.635l.189-3.591-3.265 1.956 3.076 1.635zm-1.144 1.526l1.039.542.053-1.137-1.092.594zm-12.622-8.797l.042 2.595-1.774.973 1.564 2.28-3.171 3.01 4.19-.763 4.263-.676.273-1.566h.871l.189-1.748-2.761-.583-3.455-7.945-2.635-.08v4.278l2.404.225zm-3.339 1.875v-1.695l-3.087-.209 1.774 2.37 1.313-.466zm-6.216.392v4.627l1.774-.011v-1.58l3.381.466-.252-3.428-1.774-2.37-3.129 2.296zm1.701 30.813l7.403.554 7.308-9.391-5.166-3.308-11.95.087-.052 2.283 3.549.594-1.092 9.18zm16.401-3.952v-1.987l-2.289 1.987h2.289zm27.049-2.31l4.694-1.52-1.081-2.525-3.865.757.252 3.287zm-2.971-10.678l.861 4.792 1.858 2.595 3.865-.757-.987-2.317-2.878-4.782-2.719.47zm-8.033 1.986l.431-.025 2.205-1.155.997-1.713-.735-.275h-4.599l1.701 3.168zm23.437 9.295l-3.497-.029 2.877 5.787 13.22.73 13.042-2.648v-2.032l-1.449-3.117-4.536-1.145-18.103.593-1.554 1.86zm-3.507-1.312h3.223l-1.302-2.806-1.953.632.032 2.174zm-14.438-3.752l1.165.29 2.237-1.715-.63-3.524-4.778.647 2.006 4.302zm3.769 5.02l1.491 1.724 2.878.805-1.754.744 2.321 2.92 1.459-2.313-1.627-3.555 3.234-1.593h2.667l-.032-2.174-10.637 3.442zm-2.562-11.002l-3.066-1.139-.997 1.713-2.205 1.155.766-.046 3.56 4.12.735.183-2.006-4.303 4.778-.647-.231-1.268-1.334.232zm1.355 6.62l1.68-.894-.84-1.166-2.237 1.714 1.397.346zm0 0l.945 4.079.262.307 1.743-.564-.252-3.287-1.018-1.43-1.68.895zm7.644 2.303l6.153-1.992 1.008-3.104-2.047-.564-7.182.818 2.068 4.842zm45.918 29.572l1.428.946.935-.967-1.638-2.312-.725 2.333zm-28.487-19.473l-3.77 1.397 2.699.676 1.071-2.073zm2.425 4.827v6.781l1.418.17 2.11-.988.651-3.809 1.649-.698.084-.035-.483-2.023-3.392 2.023-2.037-1.421zm25.6 14.345l-3.727-6.096h-1.628l-1.155-1.512-1.596-.005-1.596-.005-10.07-5.269-1.659.698-.641 3.809-2.121.988-1.407-.17 13.136 22.847.263.851 1.365-2.343 4.662.588-.431 1.776 6.605-3.468 9.293-2.49v-4.845l-4.841-.683-1.47-2.7-2.982-1.971zm-8.106-7.613l1.596.005 1.155 1.512h1.628l-1.975-3.215h-1.858l-.546 1.698zm-9.314-8.976l-2.751 1.644.504 2.113 9.965 5.214 1.596.005.546-1.698h1.858l1.975.128-8.348-14.125-3.833.78-1.512 5.94zm23.93 19.253l-3.528-.694 1.47 2.701 2.73.389 3.886-3.952-1.775-1.576-2.783 3.132zm.672 2.396l2.111.294v4.845l-4.673 1.25v2.817l2.604 1.765 8.611-10.677-4.767-4.246-3.886 3.952zm-31.249-22.248l-1.533 2.839 2.037 1.42 6.143-3.666 1.512-5.941-9.209 1.88-.619 2.889 1.669.58zm24.067 29.877l-6.605 3.468.431-1.776-4.662-.588-1.365 2.343 2.331 7.609 17.094-7.714-2.604-1.765v-2.817l-4.62 1.24zm-25.6-27.04l1.533-2.838-1.669-.579-.609 2.888.745.53zm-.042 6.882l.042-.1v-6.782l-.745-.53-1.176 4.346 1.879 3.066zm14.05 96.83l1.785 4.225 4.273.189 7.277-23.362h-2.593l-8.453 8.786-.851 6.095-1.438 4.067zm-46.979-57.379l-1.239-3.668h2.478l-3.055-6.494v3.594l-4.39 9.101-3.832.22-.536 3.741h1.659l-.084 3.826h10.574l.473-1.356h-.021l-3.161-4.456 1.134-4.508zm-6.09 13.105h-2.972l-.094 4.55 3.811 5.097v-4.361h4.894l-2.499-8.071h-3.14v2.785zm0 0v-2.785h-2.898l-.074 2.785h2.972zm-9.923-9.606l.672 2.995h4.767l.536-3.741 3.832-.22 4.39-9.101v-3.594h-16.434l-2.667 12.947 4.904.714zm-24.245-2.48l1.207 1.356v5.643l8.947-2.585v-8.281l-8.737-1.724v4.351l-1.417 1.24zm1.207 6.999v-5.643l-3.234-3.647-2.866 2.701 6.1 6.589zm53.857 26.336l-3.087-1.524v-5.633h-3.487l-.703 2.48-3.476.116-.903-3.121-5.523.042v12.327l-3.15 5.191.273 3.384h19.478l-3.181-3.951v-4.403h3.885l-.126-4.908zm-38.841-30.676l-1.449-8.87h-4.62v10.625l6.069-1.755zm21.085 6.642l2.499 8.071h-4.894v4.361l1.922 2.564 4.662-2.133 4.904-8.145.777-6.074h-4.872l-.473 1.356h-4.525zm45.571-22.374l2.888 4.571 1.102-.924-7.318-12.58-3.781 8.933h7.109zm-87.762 13.483l2.856-2.701-2.929-3.3-2.846 2.859 2.919 3.142zm91.416-5.927l1.838-1.324-1.502-2.585-2.194 1.839 1.858 2.07zm-13.587 41.048v2.712l2.373 1.587v3.383l-2.258 1.976v-3.962l-2.257-1.849-.063.042-4.263 2.974 4.263 2.795v3.909l-2.667 6.243v6.915l1.932-.032.126-.935 4-2.795-.294-8.418 9.388-7.703-.935-8.786-9.345 1.944zm15.425-42.372l-1.838 1.324 1.869 2.102 7.445 2.638-11.624 9.689v8.428l18.218-21.207-.745-3.72-12.664 1.881-.661-1.135zm-46.422 73.017h6.993v-17.897h9.282l-1.207-1.682h-22.009l6.941 19.579zm34.63-61.258l-3.192.452.913 3.931-.451 3.331-1.428 2.522 8.736 5.77 3.066-3.584v-8.428l3.381-2.827h-9.912l-1.113-1.167zm-4.158 10.236l-.546.957h-3.14l.809-1.388h-1.428l-3.214 7.966 5.839 8.229h2.205v4.613l9.345-1.944-1.134-12.663-8.736-5.77zM208.523 95.92h-5.187v5.959l-1.912 2.9h-6.405l-.231 6.695 7.876 5.664v-2.028h9.471l-.903-16.163h4.987l-7.696-5.686v2.66zm65.911 52.724l1.302-3.237h-2.772l-.883 3.731 2.353-.494zm-1.912 4.729l1.912-4.729-2.353.494-.64 2.701 1.081 1.534zm-75.739-28.7l3.035 3.279 2.846-2.859 2.929 3.3 2.027 2.291 1.417-1.24v-4.351l-.682-3.1h-9.02l-2.552 2.68zm15.352-9.563h-9.471v2.028l2.142 4.855h3.549l.682 3.1 4.368.862v-4.382l16.769-6.799v-5.539l-13.955-10.288h-4.987l.903 16.163zm58.287 50.096l3.382 1.356-1.176 2.365-9.944-4.908.126 4.908h-3.885v4.403l3.181 3.951h5.954l10.301-7.177v-8.502l-1.292-1.818-5.628.851-1.019 4.571zm-13.86 25.275l2.814 3.247 11.487-7.703-5.019-7.062h-9.282v11.518zm-43.157-64.526l4.369.862v-2.344h4.62l5.365-1.975-5.124-4.666-9.23 3.741v4.382zm64.956 35.647v8.502l.063-.042 2.257 1.849v3.962l2.258-1.976v-3.383l-2.373-1.587v-7.325h-2.205zm15.026-39.42l-2.888-4.571h-7.109l-5.029 11.886 6.951 7.272h9.912l8.243-6.862-7.445-2.638-3.727-4.172 1.092-.915zm-20.423 23.225h4.2l1.197-2.091h3.108l.451-3.331-.913-3.931-6.017.841-2.026 8.512zm-42.79-36.172v5.539l-7.539 3.058 5.135 4.666 1.344-.494.514-2.501h16.434l3.706-7.609-1.459-10.015H241l-10.826 7.356zm-35.144-4.456h6.394l1.922-2.9V95.92h5.187v-3.614h-5.712l-7.707 10.046-.084 2.427zm-.473 13.21l5.177 1.514h-5.229l-.095 2.49h10.396l-2.142-4.855-7.876-5.664-.231 6.515zm5.177 1.514l-5.177-1.514-.052 1.514h5.229zm50.024-7.609l-3.696 7.609 3.055 6.494h-2.478l1.239 3.668 12.265-5.801v-6.316l2.73-2.69.273-6.138-10.648-6.841h-4.189l1.449 10.015zm.031-24.885l-2.236-2.714-4.799-1.153-4.463 4.804 2.898 13.935h11.309l10.648 6.841 1.039-23.582-6.195-.84-2.562 3.836-5.639-1.127zm-41.256 5.294v-.768l12.853-7.021v-5.038l-9.472.988-9.093 11.843 5.712-.004zm12.853-12.821v5.038l-12.853 7.021v1.724l21.641 15.973L241 101.882h.189l-5.281-25.4-6.217-.18-8.305 3.18zm14.522-3.004l2.383 11.475 4.463-4.803-1.754-.42.221-6.096-5.313-.156zm28.729 100.802l6.226 8.744h4.831l2.667-6.243v-3.909l-4.263-2.795-6.038 4.203h-3.423zm2.856 23.814h2.478l1.47-1.535v-1.965h-2.027l-1.921 1.24v2.26zm8.201-8.796h-1.89v1.734l1.89 1.135v-2.869zm5.082-102.001l.031-.088-1.879-3.066-14.743-2.005-.787 17.886h16.16l3.255-1.86-6.699-11.518 3.664 2.99.998-2.34zm2.037 10.877l-3.255 1.86h-16.171l-.514 11.823-2.73 2.69v6.316l9.67 11.139 5.177 1.892 9.198-1.293-5.827-6.105 8.81-20.819-4.358-7.503zm-11.372 50.664l3.549-14.944-5.177-1.892-14.606.41-1.186 9.29-4.904 8.145-4.662 2.133 1.05 1.398 5.523-.042.903 3.121 3.476-.116.703-2.48h3.487v5.633l13.031 6.432 1.176-2.365-3.382-1.356 1.019-4.571 5.628-.851-5.628-7.945zm-24.697-17.666l3.161 4.456h4.893l.409-3.216 14.606-.41-9.67-11.139-12.265 5.801-1.134 4.508zm-17.63-12.169l-4.578 1.681 1.501 9.027.924-.262 2.153-10.446zm-4.578 1.681l-2.142.788 1.449 8.87 2.194-.631-1.501-9.027zm-27.753.988l2.552-2.68h-4.914l-.011.116 2.373 2.564zM53.671 19.263l-3.84-1.577-20.067.113-8.116 3.273v3.61l-9.132-.112-1.732 2.42 7.706-.277-9.92 3.724-4.794 6.5 4.117-.068L0 42.059l2.885.226 15.11-7.22 17.442-.61 5.249 5.312 2.05-2.165-1.748-1.806h-1.972l-1.925-2.21 16.58-14.323zm-13.123 33.59l-2.762-2.257-1.185 1.016 1.926 2.52h2.021v-1.279zm105.844 3.494l-2.069-3.297-1.869-.447v-2.366l-6.016 6.11h9.954zm-3.15-38.168l-12.118-4.953-1.806-.02-4.21 3.462 1.407-3.482-2.037-.016-4.904 5.218 11.918-.649 7.277 6.517-4.893-.084-2.468 2.023h-5.555v1.589h5.639l4.778 3.954 1.302-.57-1.134-2.51 3.286 1.565 1.071-.466V24.85l3.78 1.346 2.174-1.451-1.229-2.297-2.184-.796-.094-3.472zM102.5 62.504h3.487l2.425-1.663h7.833l3.379-2.928h3.046l-.577 1.708-.526 1.768 5.357-.994-3.549 1.692.336 1.469 9.64-3.39-4.705-.223-2.194-1.98 2.173-3.373-1.06-1.013-6.815 3.095v-1.777l6.521-3.132 10.448-.45 7.854-4.184.042-1.91-5.723-.992-.693-9.363-7.487 2.949.053-4.406-3.612-3.075h-4.904l-13.262 19.316-3.213.01.063-6.352L95.413 37.1l11.424-8.463 6.479-1.183-1.355-2.005 9.976-1.1L126 20.116l-3.811-.422-5.24 3.469.588-2.961-2.447-.255-.577-3.578-4.242 1.885 1.102 2.286-5.67 2.707-9.891-1.861-5.23 2.454-12.694-5.077-24.217.5-16.58 14.323 1.925 2.209h1.972l1.748 1.806-2.05 2.165-2.03 9.297 3.636 3.3.05 1.82h40.753l4.778 2.188 8.076-1.766 1.019 3.597 1.638 1.21 2.751-.194 1.143 3.285zm14.564-36.307l-3.108 2.53 6.143.65.651-1.591-3.686-1.589zm-11.991-6.435l1.145 1.479 2.898-1.479-.861-1.372-3.182 1.372zm2.195-4.966l1.848 1.875 3.969-1.327 1.039-2.776-6.856 2.228zm7.57-1.116l.504 1.777 5.408-1.439-1.092-1.45-4.82 1.112zm13.787-3.682l-2.961-1.227-2.877 2.454 11.666.92 3.045-2.147h-8.873zm28.404-6.558l6.09-3.44-24.182 1.795v1.306l8.159-.169-1.145 1.524-8.453.168 1.103 1.947-3.644-.592 1.439 1.86h-6.259l.935.932h6.846l1.103.93 9.975-4.654 8.033-1.607zm-29.59 1.412l4.504.852 2.584-1.655-1.869-1.397-5.219 2.2zM79.862 16.675l10.584-3.604-2.436-1.13-10.007 2.551 1.859 2.183zm11.95-2.946l-5.704 1.941 3.361 1.417-5.242 1.336 6.513 2.54 4.484-1.948 4.987 1.186 3.739-.86-3.655-1.688 2.814-3.636h-2.814l-1.69 2.188-.683-2.188-2.982 1.158-3.129-1.446zm-8.262 89.148h5.195l4.19 2.796-1.596 1.776h7.266l-8.684-6.264h-4.595l-1.776 1.692zm7.274 7.787l1.092.936h3.13v-1.104l-1.093-1.103h-3.129v1.271zm19.268-.861l-.64 1.061h1.753l.641-1.061h-1.754zm-38.58 4.582h-2.958l-1.405 2.501 4.138 2.07 2.277-4.114.561-1.014-.499-2.691h-2.535l.422 3.248zm3.248 4.109l-.51 1.797.763.347 6.998-5.864-8.447.068-1.338 2.418 2.534 1.234zm-.51 1.797l.51-1.797-2.535-1.234-.938 1.696 2.963 1.335zm2.675-11.613l-3.299 2.459.5 2.691 2.799-5.15zm.75 15.554l4.563.483-.227-9.941-6.998 5.864 2.662 3.594zm7.35 27.68l3.734 1.787 6.657-8.176-6.783-3.878-3.219 4.057-.388 6.21zm13.714-28.941l-1.806-.011-3.77 5.097-1.921.126.54 1.85-1.002 1.429.777 2.585-.735 4.824-2.195 2.774 15.499 8.859v-9.941l3.602-.242v-7.892l-5.912-.61-2.573-2.848-.504-6zm24.613 120.643l2.31 2.123 7.119.263-7.686-4.014-1.743 1.628zm10.941-51.231l-3.108 1.891h-4.179v-3.72l-8.537-5.78-.483.883h-7.119l-1.911 17.76 4.022 17.603 3.633 6.474.168 4.855 5.397 8.27 1.964.2-1.019-21.155 11.445-4.96-5.187-7.23v-7.956l5.051-5.191-.137-1.944zm1.261 17.361l2.478-4.298-8.653-5.928v7.956l6.175 2.27zm-24.099-83.957l-3.832-2.732-8.884-.084.504 6 2.573 2.848 5.912.61v7.892l.945-.063 1.197 2.68 3.843-1.24-.315-4.162 5.145-1.892 1.522-7.524-1.732-1.66-6.878-.673zm-33.78-1.555l3.028 4.109 1.096.389 1.54-1.997-1.08-.599-.021-1.419-4.563-.483zm47.746 8.995l-5.366-5.107-1.523 7.524 2.237-.819-.305 6.421 5.135-.578-1.753-4.498 1.575-2.943zm-13.273 30.992l-5.239 1.481v11.991l3.948 7.966h7.119l2.772-5.086 5.366-.032-.126-4.014-9.136-7.472-4.704-4.834zm18.061-24.056l3.444-.388 1.018-2.89-1.354-2.975-2.877-.241-.231 6.494zm-4.095 40.376l-5.366.032-2.289 4.203 8.537 5.78v3.72h4.179l3.108-1.891-.21-2.943-7.812-4.172-.147-4.729zm-.515-39.871l4.61-.505.231-6.494-5.019-.442-1.575 2.943 1.753 4.498zm21.578 6.442l-3.906-1.692-3.906 2.291 1.271-3.426-2.594-1.125-3.686 2.838 2.678-3.952-2.363-5.159-1.018 2.89-13.189 1.471.305-6.421-2.237.819-5.145 1.892.315 4.162-3.843 1.24-1.197-2.68-4.547.305v11.738l-4.62.568-2.037 6.652 7.728 6.663 6.962-1.965 4.704 4.834 9.136 7.472.273 8.743 7.812 4.172.346 4.887-5.05 5.191 8.652 5.928 5.04-8.797 1.187-7.619 12.243-5.422 2.279-16.941 5.282-6.915v-4.182l-8.642-5.633-8.453-.515.22-2.312zm-60.503-20.524l-1.434 1.198-1.902-1.051-1.539 1.997 4.528 1.618 1.097-1.639 2.594.252.762 2.501 1.002-1.429-.54-1.85-.5-1.955-4.068.358zm12.821 26.283l4.62-.568v-1.797l-8.715-4.981-6.657 8.176-3.733-1.787-.12 1.913 11.34 19.326 9.798 6.568.882-2.028V165.7l-1.722.484-7.729-6.663 2.036-6.652zm13.472 68.151l-4.021-17.603 1.911-17.76-3.948-7.966-.883 2.028 1.649 40.198 4.337 3.51.199 7.209 7.518 9.731 2.437.252-5.398-8.27-.168-4.855-3.633-6.474zm-5.25-112.657l-5.114-.567v2.826l1.712-1.271h2.73l.672-.988zm-5.114 1.502v-2.069h-3.192l1.04 1.471h-1.859v.662l4.011-.064zM487.405 218.895l-1.046 3.355 7.641-5.452-2.198-2.935v-3.355l-1.256.524v4.718l-3.141 3.145zm-20.098 11.008l15.911-8.072v2.096L470.971 232l-3.664-2.097zm-65.213-41.411l13.398-6.29 9.945-11.008 5.443 2.411 2.407-5.032 9.107-.21-2.303 4.193 7.537 6.5 5.025-5.032V167l2.302.734 2.617 12.581 8.165 11.532-.837 8.701-14.864 15.412-12.876-.734-1.57-8.702-4.396 1.887-4.187-3.669-25.437 5.556-1.57-1.887 2.094-5.032v-14.887z" fill="#DAE2E6"></path></svg>